<?xml version="1.0" encoding="UTF-8"?><svg xmlns="http://www.w3.org/2000/svg" xmlns:xlink="http://www.w3.org/1999/xlink" fill-opacity="1" color-rendering="auto" color-interpolation="auto" text-rendering="auto" stroke="black" stroke-linecap="square" width="557" stroke-miterlimit="10" shape-rendering="auto" stroke-opacity="1" fill="black" stroke-dasharray="none" font-weight="normal" stroke-width="1" height="360" font-family="'Dialog'" font-style="normal" stroke-linejoin="miter" font-size="12px" stroke-dashoffset="0" image-rendering="auto">
  <!--Generated by ySVG 2.5-->
  <defs id="genericDefs"/>
  <g>
    <defs id="defs1">
      <clipPath clipPathUnits="userSpaceOnUse" id="clipPath1">
        <path d="M0 0 L557 0 L557 360 L0 360 L0 0 Z"/>
      </clipPath>
      <clipPath clipPathUnits="userSpaceOnUse" id="clipPath2">
        <path d="M312 120 L869 120 L869 480 L312 480 L312 120 Z"/>
      </clipPath>
    </defs>
    <g fill="white" text-rendering="geometricPrecision" shape-rendering="geometricPrecision" transform="translate(-312,-120)" stroke="white">
      <rect x="312" width="557" height="360" y="120" clip-path="url(#clipPath2)" stroke="none"/>
    </g>
    <g fill="rgb(255,204,0)" text-rendering="geometricPrecision" shape-rendering="geometricPrecision" transform="matrix(1,0,0,1,-312,-120)" stroke="rgb(255,204,0)">
      <rect x="495" y="135" clip-path="url(#clipPath2)" width="90" rx="4" ry="4" height="30" stroke="none"/>
    </g>
    <g text-rendering="geometricPrecision" stroke-miterlimit="1.45" shape-rendering="geometricPrecision" transform="matrix(1,0,0,1,-312,-120)" stroke-linecap="butt">
      <rect x="495" y="135" clip-path="url(#clipPath2)" fill="none" width="90" rx="4" ry="4" height="30"/>
      <text x="526.377" xml:space="preserve" y="154.5352" clip-path="url(#clipPath2)" font-family="sans-serif" stroke="none">View</text>
    </g>
    <g fill="rgb(255,204,0)" text-rendering="geometricPrecision" shape-rendering="geometricPrecision" transform="matrix(1,0,0,1,-312,-120)" stroke="rgb(255,204,0)">
      <rect x="495" y="435" clip-path="url(#clipPath2)" width="90" rx="4" ry="4" height="30" stroke="none"/>
    </g>
    <g text-rendering="geometricPrecision" stroke-miterlimit="1.45" shape-rendering="geometricPrecision" transform="matrix(1,0,0,1,-312,-120)" stroke-linecap="butt">
      <rect x="495" y="435" clip-path="url(#clipPath2)" fill="none" width="90" rx="4" ry="4" height="30"/>
      <text x="522.293" xml:space="preserve" y="454.5352" clip-path="url(#clipPath2)" font-family="sans-serif" stroke="none">Model</text>
      <path fill="none" d="M554.0591 164.9963 L557.5781 168.75 L572.8125 187.5 L585.7031 206.25 L596.25 225 L604.4531 243.75 L610.3125 262.5 L613.8281 281.25 L615 300 L613.8281 318.75 L610.3125 337.5 L604.4531 356.25 L596.25 375 L585.7031 393.75 L572.8125 412.5 L559.3812 429.0308 L559.3128 429.1038" clip-path="url(#clipPath2)"/>
      <path d="M553.9926 435.0783 L565.707 429.4417 L559.9778 428.357 L558.2388 422.7914 Z" clip-path="url(#clipPath2)" stroke="none"/>
      <text x="631.2301" xml:space="preserve" y="303.7766" clip-path="url(#clipPath2)" font-family="sans-serif" stroke="none">const model = new Model(drawGame)</text>
      <path fill="none" d="M525.9409 435.0037 L522.4219 431.25 L507.1875 412.5 L494.2969 393.75 L483.75 375 L475.5469 356.25 L469.6875 337.5 L466.1719 318.75 L465 300 L466.1719 281.25 L469.6875 262.5 L475.5469 243.75 L483.75 225 L494.2969 206.25 L507.1875 187.5 L520.6188 170.9692 L520.6872 170.8962" clip-path="url(#clipPath2)"/>
      <path d="M526.0074 164.9217 L514.293 170.5584 L520.0222 171.6431 L521.7612 177.2086 Z" clip-path="url(#clipPath2)" stroke="none"/>
      <text x="358.182" xml:space="preserve" y="290.0945" clip-path="url(#clipPath2)" font-family="sans-serif" stroke="none">updated() {</text>
      <text x="329.5473" xml:space="preserve" y="304.2274" clip-path="url(#clipPath2)" font-family="sans-serif" stroke="none">    this.callback(this);</text>
      <text x="387.9359" xml:space="preserve" y="318.3602" clip-path="url(#clipPath2)" font-family="sans-serif" stroke="none">}</text>
    </g>
  </g>
</svg>
