<?xml version="1.0" encoding="UTF-8"?><svg xmlns="http://www.w3.org/2000/svg" xmlns:xlink="http://www.w3.org/1999/xlink" fill-opacity="1" color-rendering="auto" color-interpolation="auto" text-rendering="auto" stroke="black" stroke-linecap="square" width="630" stroke-miterlimit="10" shape-rendering="auto" stroke-opacity="1" fill="black" stroke-dasharray="none" font-weight="normal" stroke-width="1" height="318" font-family="'Dialog'" font-style="normal" stroke-linejoin="miter" font-size="12px" stroke-dashoffset="0" image-rendering="auto">
  <!--Generated by ySVG 2.5-->
  <defs id="genericDefs"/>
  <g>
    <defs id="defs1">
      <clipPath clipPathUnits="userSpaceOnUse" id="clipPath1">
        <path d="M0 0 L630 0 L630 318 L0 318 L0 0 Z"/>
      </clipPath>
      <clipPath clipPathUnits="userSpaceOnUse" id="clipPath2">
        <path d="M285 177 L915 177 L915 495 L285 495 L285 177 Z"/>
      </clipPath>
    </defs>
    <g fill="white" text-rendering="geometricPrecision" shape-rendering="geometricPrecision" transform="translate(-285,-177)" stroke="white">
      <rect x="285" width="630" height="318" y="177" clip-path="url(#clipPath2)" stroke="none"/>
    </g>
    <g fill="rgb(255,204,0)" text-rendering="geometricPrecision" shape-rendering="geometricPrecision" transform="matrix(1,0,0,1,-285,-177)" stroke="rgb(255,204,0)">
      <rect x="300" y="210" clip-path="url(#clipPath2)" width="120" rx="4" ry="4" height="60" stroke="none"/>
    </g>
    <g text-rendering="geometricPrecision" stroke-miterlimit="1.45" shape-rendering="geometricPrecision" transform="matrix(1,0,0,1,-285,-177)" stroke-linecap="butt">
      <rect x="300" y="210" clip-path="url(#clipPath2)" fill="none" width="120" rx="4" ry="4" height="60"/>
      <text x="346.377" xml:space="preserve" y="244.5352" clip-path="url(#clipPath2)" font-family="sans-serif" stroke="none">View</text>
    </g>
    <g fill="rgb(255,204,0)" text-rendering="geometricPrecision" shape-rendering="geometricPrecision" transform="matrix(1,0,0,1,-285,-177)" stroke="rgb(255,204,0)">
      <rect x="780" y="210" clip-path="url(#clipPath2)" width="120" rx="4" ry="4" height="60" stroke="none"/>
    </g>
    <g text-rendering="geometricPrecision" stroke-miterlimit="1.45" shape-rendering="geometricPrecision" transform="matrix(1,0,0,1,-285,-177)" stroke-linecap="butt">
      <rect x="780" y="210" clip-path="url(#clipPath2)" fill="none" width="120" rx="4" ry="4" height="60"/>
      <text x="810.7881" xml:space="preserve" y="244.5352" clip-path="url(#clipPath2)" font-family="sans-serif" stroke="none">Controller</text>
    </g>
    <g fill="rgb(255,204,0)" text-rendering="geometricPrecision" shape-rendering="geometricPrecision" transform="matrix(1,0,0,1,-285,-177)" stroke="rgb(255,204,0)">
      <rect x="540" y="420" clip-path="url(#clipPath2)" width="120" rx="4" ry="4" height="60" stroke="none"/>
    </g>
    <g text-rendering="geometricPrecision" stroke-miterlimit="1.45" shape-rendering="geometricPrecision" transform="matrix(1,0,0,1,-285,-177)" stroke-linecap="butt">
      <rect x="540" y="420" clip-path="url(#clipPath2)" fill="none" width="120" rx="4" ry="4" height="60"/>
      <text x="578.9502" xml:space="preserve" y="454.5352" clip-path="url(#clipPath2)" font-family="sans-serif" stroke="none">Modèle</text>
      <path fill="none" d="M419.9707 257 L771.9848 257" clip-path="url(#clipPath2)"/>
      <path d="M779.9848 257 L767.9848 252 L770.9848 257 L767.9848 262 Z" clip-path="url(#clipPath2)" stroke="none"/>
      <text x="547.1338" xml:space="preserve" y="291.5352" clip-path="url(#clipPath2)" font-family="sans-serif" stroke="none">Actions utilisateur</text>
      <path fill="none" d="M779.978 232 L427.9915 232" clip-path="url(#clipPath2)"/>
      <path d="M419.9915 232 L431.9915 237 L428.9915 232 L431.9915 227 Z" clip-path="url(#clipPath2)" stroke="none"/>
      <text x="554.1738" xml:space="preserve" y="206.5352" clip-path="url(#clipPath2)" font-family="sans-serif" stroke="none">Choix de la Vue</text>
      <path fill="none" d="M805.6934 270.0183 L640.2945 414.7423" clip-path="url(#clipPath2)"/>
      <path d="M634.2739 420.0104 L646.5973 415.8712 L641.0471 414.0838 L640.0123 408.3455 Z" clip-path="url(#clipPath2)" stroke="none"/>
      <text x="749.8971" xml:space="preserve" y="361.9351" clip-path="url(#clipPath2)" font-family="sans-serif" stroke="none">Modification</text>
      <text x="781.7926" xml:space="preserve" y="376.0679" clip-path="url(#clipPath2)" font-family="sans-serif" stroke="none">&amp;</text>
      <text x="750.3365" xml:space="preserve" y="390.2007" clip-path="url(#clipPath2)" font-family="sans-serif" stroke="none">Chargement</text>
      <path fill="none" d="M565.6934 419.9817 L400.2945 275.2577" clip-path="url(#clipPath2)"/>
      <path d="M394.2739 269.9896 L400.0122 281.6546 L401.0471 275.9162 L406.5973 274.1288 Z" clip-path="url(#clipPath2)" stroke="none"/>
      <text x="374.7381" xml:space="preserve" y="352.8713" clip-path="url(#clipPath2)" font-family="sans-serif" stroke="none">Notification</text>
      <text x="401.4305" xml:space="preserve" y="367.0042" clip-path="url(#clipPath2)" font-family="sans-serif" stroke="none">de</text>
      <text x="372.7196" xml:space="preserve" y="381.137" clip-path="url(#clipPath2)" font-family="sans-serif" stroke="none">changement</text>
    </g>
  </g>
</svg>
